<?xml version="1.0" encoding="utf-8"?>
<!-- Generator: Adobe Illustrator 16.0.0, SVG Export Plug-In . SVG Version: 6.00 Build 0)  -->
<!DOCTYPE svg PUBLIC "-//W3C//DTD SVG 1.1//EN" "http://www.w3.org/Graphics/SVG/1.1/DTD/svg11.dtd">
<svg version="1.1" id="Layer_1" xmlns="http://www.w3.org/2000/svg" xmlns:xlink="http://www.w3.org/1999/xlink" x="0px" y="0px"
	 width="300px" height="300px" viewBox="0 0 300 300" enable-background="new 0 0 300 300" xml:space="preserve">
<g>
	<path fill="#31BDB9" d="M-1048.164-970.504c0-82.285,66.71-149.008,149-149.008c82.291,0,149,66.723,149,149.008
		c0,82.289-66.709,148.992-149,148.992C-981.454-821.512-1048.164-888.215-1048.164-970.504z M-951.615-1024.275
		c14.242,1.953,32.867,3.028,52.451,3.028c19.585,0,38.229-1.075,52.452-3.028c18.312-2.496,21.75-5.359,22.313-6.02
		c-0.052-0.051-0.103-0.116-0.199-0.182v-0.018c-0.033-0.034-0.066-0.049-0.101-0.1h-0.018c-0.032-0.033-0.082-0.066-0.132-0.099
		l-0.017-0.017c-0.05-0.033-0.1-0.067-0.149-0.116c0,0-0.016,0-0.032-0.017c-0.052-0.033-0.114-0.082-0.165-0.116
		c-0.018,0-0.032-0.017-0.049-0.033c-0.051-0.032-0.117-0.065-0.197-0.116c0,0-0.018-0.016-0.034-0.016
		c-0.083-0.051-0.149-0.1-0.231-0.148c0,0-0.033-0.017-0.049-0.017c-0.084-0.05-0.185-0.101-0.281-0.147
		c-0.017-0.018-0.033-0.018-0.033-0.018c-0.116-0.066-0.23-0.116-0.365-0.182l0,0c-0.381-0.183-0.843-0.381-1.372-0.58
		c-0.017-0.016-0.05-0.033-0.05-0.033c-0.164-0.064-0.331-0.115-0.496-0.182c-0.049-0.017-0.1-0.033-0.148-0.049
		c-0.148-0.051-0.299-0.1-0.446-0.166c-0.065-0.017-0.148-0.033-0.214-0.066c-0.149-0.049-0.282-0.1-0.448-0.149
		c-0.083-0.017-0.163-0.049-0.247-0.082c-0.148-0.032-0.297-0.099-0.464-0.132c-0.082-0.033-0.198-0.066-0.296-0.1
		c-0.149-0.032-0.315-0.082-0.465-0.131c-0.115-0.033-0.23-0.066-0.348-0.101c-0.166-0.049-0.314-0.082-0.496-0.131
		c-0.115-0.034-0.248-0.065-0.365-0.101c-0.181-0.049-0.348-0.099-0.527-0.131c-0.133-0.033-0.266-0.065-0.413-0.115
		c-0.183-0.033-0.363-0.084-0.547-0.133c-0.147-0.033-0.3-0.065-0.462-0.1c-0.184-0.05-0.383-0.1-0.579-0.132
		c-0.165-0.05-0.315-0.083-0.479-0.116c-0.216-0.05-0.414-0.084-0.629-0.133c-0.164-0.033-0.348-0.066-0.527-0.116
		c-0.219-0.032-0.433-0.083-0.664-0.133c-0.182-0.032-0.363-0.065-0.562-0.115c-0.215-0.032-0.465-0.082-0.696-0.132
		c-0.196-0.033-0.396-0.066-0.596-0.1c-0.248-0.049-0.494-0.1-0.727-0.133c-0.217-0.049-0.432-0.082-0.662-0.131
		c-0.247-0.035-0.496-0.084-0.76-0.117c-0.233-0.049-0.465-0.082-0.696-0.115c-0.265-0.049-0.545-0.1-0.825-0.133
		c-0.23-0.049-0.466-0.082-0.713-0.115c-0.298-0.051-0.596-0.1-0.895-0.133c-0.248-0.051-0.496-0.082-0.742-0.115
		c-0.331-0.051-0.68-0.1-1.012-0.149c-0.23-0.034-0.463-0.067-0.691-0.083c-5.989-0.826-12.753-1.488-20.031-1.984
		c-1.24-0.082-2.498-0.166-3.771-0.231c-0.299-0.032-0.611-0.032-0.928-0.064c-8.731-0.48-18.111-0.746-27.723-0.746
		c-1.225,0-2.448,0-3.656,0.018c-16.523,0.115-32.188,0.992-44.908,2.516c-1.322,0.147-2.629,0.312-3.888,0.494
		c-0.116,0-0.231,0.018-0.347,0.034c-0.463,0.065-0.926,0.132-1.374,0.199c-0.214,0.032-0.413,0.065-0.628,0.099
		c-0.348,0.051-0.695,0.1-1.01,0.148c-0.231,0.033-0.43,0.066-0.646,0.1c-0.313,0.051-0.612,0.102-0.91,0.148
		c-0.214,0.033-0.413,0.066-0.627,0.101c-0.282,0.05-0.579,0.099-0.862,0.147c-0.197,0.035-0.379,0.066-0.578,0.101
		c-0.266,0.05-0.529,0.099-0.793,0.149c-0.199,0.033-0.381,0.066-0.562,0.099c-0.249,0.05-0.514,0.099-0.745,0.147
		c-0.182,0.033-0.347,0.067-0.528,0.1c-0.232,0.05-0.463,0.102-0.713,0.148c-0.147,0.033-0.312,0.067-0.479,0.101
		c-0.217,0.049-0.447,0.099-0.663,0.147c-0.147,0.033-0.298,0.066-0.446,0.101c-0.215,0.05-0.431,0.099-0.646,0.146
		c-0.133,0.033-0.266,0.067-0.398,0.1c-0.197,0.05-0.396,0.1-0.611,0.148c-0.115,0.032-0.248,0.049-0.363,0.082
		c-0.199,0.065-0.381,0.1-0.579,0.166c-0.099,0.016-0.214,0.049-0.313,0.082c-0.197,0.051-0.381,0.1-0.58,0.148
		c-0.082,0.033-0.166,0.05-0.264,0.082c-0.197,0.05-0.38,0.117-0.579,0.166c-0.065,0.017-0.132,0.05-0.182,0.066
		c-0.231,0.065-0.447,0.131-0.646,0.197c0,0-0.05,0.018-0.082,0.018c-0.463,0.147-0.894,0.297-1.273,0.445l0,0
		c-0.184,0.067-0.364,0.133-0.546,0.2c-0.033,0.017-0.067,0.033-0.099,0.05c-0.134,0.049-0.267,0.1-0.397,0.164
		c-0.033,0-0.066,0.034-0.116,0.051c-0.115,0.049-0.215,0.082-0.314,0.131c-0.049,0.018-0.1,0.051-0.133,0.067
		c-0.099,0.033-0.182,0.082-0.281,0.115c-0.032,0.032-0.065,0.05-0.115,0.065c-0.083,0.033-0.148,0.084-0.232,0.117
		c-0.031,0.016-0.064,0.032-0.115,0.066c-0.065,0.033-0.131,0.064-0.196,0.1c-0.034,0.016-0.067,0.032-0.101,0.049
		c-0.065,0.051-0.115,0.084-0.182,0.117c-0.018,0.016-0.05,0.032-0.083,0.049c-0.05,0.033-0.099,0.066-0.149,0.1
		c-0.033,0.016-0.049,0.033-0.065,0.05c-0.05,0.017-0.101,0.05-0.147,0.083c-0.018,0.016-0.033,0.033-0.051,0.049
		c-0.05,0.018-0.083,0.051-0.115,0.083c-0.017,0.017-0.033,0.017-0.05,0.032c-0.034,0.033-0.065,0.05-0.101,0.083
		c-0.016,0.017-0.016,0.017-0.032,0.034c-0.033,0.015-0.067,0.049-0.099,0.082h-0.018c-0.016,0.033-0.05,0.066-0.083,0.099
		c-0.016,0.017-0.032,0.052-0.065,0.067C-973.366-1029.65-969.943-1026.771-951.615-1024.275z M-824.598-987.821
		c-0.033-0.032-0.066-0.067-0.101-0.099h-0.018c-0.032-0.033-0.082-0.066-0.132-0.1c0-0.018-0.017-0.018-0.017-0.018
		c-0.05-0.032-0.1-0.083-0.149-0.115l-0.032-0.018c-0.052-0.031-0.114-0.082-0.165-0.115c-0.018,0-0.032-0.019-0.049-0.033
		c-0.051-0.033-0.117-0.066-0.197-0.115c0-0.018-0.018-0.018-0.034-0.018c-0.083-0.049-0.149-0.101-0.231-0.148
		c0,0-0.033-0.017-0.049-0.017c-0.084-0.049-0.185-0.1-0.281-0.149c-0.017-0.015-0.033-0.015-0.033-0.015
		c-0.116-0.067-0.23-0.116-0.365-0.183l0,0c-0.381-0.182-0.843-0.381-1.372-0.596l-0.065-0.018
		c-0.147-0.066-0.314-0.116-0.479-0.182c-0.049-0.017-0.101-0.033-0.147-0.049c-0.149-0.051-0.299-0.117-0.447-0.166
		c-0.065-0.017-0.148-0.051-0.215-0.066c-0.148-0.051-0.281-0.1-0.447-0.148c-0.083-0.033-0.163-0.05-0.247-0.082
		c-0.149-0.051-0.297-0.101-0.464-0.134c-0.082-0.032-0.198-0.065-0.296-0.101c-0.149-0.049-0.315-0.098-0.464-0.131
		c-0.116-0.033-0.231-0.064-0.349-0.1c-0.166-0.05-0.315-0.1-0.495-0.133c-0.117-0.033-0.248-0.066-0.365-0.101
		c-0.182-0.049-0.349-0.1-0.528-0.133c-0.132-0.033-0.265-0.065-0.413-0.115c-0.184-0.033-0.363-0.082-0.547-0.133
		c-0.146-0.033-0.299-0.065-0.462-0.1c-0.183-0.05-0.382-0.1-0.579-0.148c-0.165-0.033-0.314-0.064-0.479-0.099
		c-0.217-0.05-0.414-0.083-0.629-0.133c-0.035,0-0.051-0.018-0.051-0.018c9.857-2.101,11.479-4.037,11.661-4.315v-29.074
		c-3.423,1.703-9.495,3.407-20.097,4.963c-14.641,2.115-34.074,3.291-54.734,3.291c-20.659,0-40.096-1.176-54.734-3.291
		c-10.619-1.556-16.673-3.26-20.097-4.98v29.046c0.166,0.28,1.737,2.231,11.711,4.349c-0.032,0.018-0.083,0.033-0.131,0.033
		c-0.216,0.051-0.447,0.1-0.663,0.148c-0.148,0.033-0.298,0.066-0.445,0.1c-0.216,0.049-0.432,0.1-0.646,0.147
		c-0.132,0.033-0.265,0.065-0.397,0.101c-0.199,0.05-0.397,0.1-0.611,0.147c-0.116,0.035-0.25,0.051-0.364,0.084
		c-0.199,0.049-0.38,0.1-0.579,0.148c-0.1,0.033-0.214,0.066-0.314,0.1c-0.196,0.049-0.379,0.1-0.578,0.149
		c-0.082,0.033-0.166,0.05-0.265,0.083c-0.198,0.051-0.38,0.115-0.579,0.165c-0.065,0.017-0.132,0.034-0.182,0.05
		c-0.23,0.083-0.447,0.148-0.645,0.215c0,0-0.051,0.018-0.084,0.018c-0.461,0.148-0.893,0.297-1.272,0.447l0,0
		c-0.183,0.065-0.364,0.131-0.546,0.197c-0.033,0.018-0.067,0.033-0.1,0.049c-0.133,0.051-0.266,0.101-0.396,0.149
		c-0.033,0.017-0.066,0.05-0.116,0.067c-0.116,0.049-0.215,0.082-0.315,0.131c-0.049,0.018-0.099,0.035-0.131,0.066
		c-0.1,0.032-0.183,0.082-0.281,0.116c-0.033,0.017-0.066,0.05-0.116,0.065c-0.083,0.033-0.147,0.082-0.231,0.115
		c-0.033,0.018-0.065,0.035-0.115,0.051c-0.066,0.05-0.133,0.082-0.197,0.115c-0.034,0.017-0.067,0.033-0.102,0.049
		c-0.064,0.033-0.115,0.082-0.181,0.1c-0.017,0.034-0.05,0.051-0.083,0.065c-0.05,0.033-0.099,0.066-0.148,0.101
		c-0.033,0.018-0.049,0.033-0.049,0.033c-0.066,0.033-0.117,0.066-0.166,0.1c-0.017,0.016-0.033,0.033-0.05,0.033
		c-0.05,0.033-0.083,0.065-0.114,0.1c-0.018,0-0.035,0.017-0.051,0.032c-0.033,0.034-0.066,0.05-0.1,0.083
		c0,0-0.016,0.016-0.033,0.016c-0.033,0.033-0.066,0.066-0.1,0.101h-0.017c-0.016,0.032-0.05,0.065-0.083,0.082
		c-0.016,0.032-0.033,0.05-0.066,0.083c0.562,0.645,3.986,3.523,22.313,6.021c14.242,1.951,32.867,3.025,52.451,3.025
		c19.585,0,38.228-1.074,52.452-3.025c18.311-2.498,21.75-5.377,22.312-6.021C-824.449-987.672-824.5-987.738-824.598-987.821
		L-824.598-987.821z M-899.164-931.635c-20.659,0-40.096-1.174-54.734-3.289c-10.619-1.557-16.673-3.276-20.097-4.979v29.043
		c0.215,0.351,2.746,3.476,22.331,6.171c14.225,1.951,32.866,3.023,52.5,3.023c19.585,0,38.229-1.072,52.452-3.023
		c19.534-2.662,22.147-5.757,22.379-6.119v-29.078c-3.423,1.688-9.495,3.406-20.097,4.963
		C-859.068-932.809-878.504-931.635-899.164-931.635z M-824.598-945.146c-0.033-0.035-0.066-0.066-0.101-0.1h-0.018
		c-0.032-0.035-0.082-0.068-0.132-0.1c0-0.017-0.017-0.017-0.017-0.017c-0.05-0.051-0.1-0.084-0.149-0.116l-0.032-0.019
		c-0.052-0.032-0.114-0.082-0.165-0.115c-0.018-0.017-0.032-0.017-0.049-0.032c-0.051-0.031-0.117-0.064-0.197-0.115
		c0-0.019-0.018-0.019-0.034-0.033c-0.083-0.033-0.149-0.084-0.231-0.133c0,0-0.033-0.016-0.049-0.016
		c-0.084-0.05-0.185-0.1-0.281-0.148c-0.017-0.019-0.033-0.019-0.033-0.019c-0.116-0.065-0.23-0.114-0.365-0.18l0,0
		c-0.381-0.185-0.843-0.384-1.372-0.597l-0.065-0.019c-0.147-0.065-0.314-0.134-0.479-0.183c-0.049-0.016-0.101-0.031-0.147-0.047
		c-0.149-0.067-0.299-0.117-0.447-0.168c-0.065-0.017-0.148-0.049-0.215-0.065c-0.148-0.048-0.281-0.098-0.447-0.148
		c-0.083-0.031-0.163-0.049-0.247-0.082c-0.149-0.051-0.297-0.1-0.464-0.146c-0.082-0.018-0.198-0.05-0.296-0.083
		c-0.149-0.051-0.315-0.083-0.464-0.133c-0.116-0.032-0.231-0.065-0.349-0.1c-0.166-0.051-0.315-0.1-0.495-0.133
		c-0.117-0.033-0.248-0.064-0.365-0.098c-0.182-0.051-0.349-0.1-0.528-0.133c-0.132-0.035-0.265-0.084-0.413-0.116
		c-0.184-0.05-0.363-0.083-0.547-0.134c-0.146-0.031-0.299-0.064-0.462-0.116c-0.183-0.032-0.382-0.08-0.579-0.132
		c-0.165-0.031-0.314-0.065-0.479-0.098c-0.217-0.054-0.414-0.103-0.629-0.134c-0.035-0.017-0.051-0.017-0.051-0.017
		c9.857-2.1,11.479-4.035,11.661-4.318v-29.076c-3.423,1.703-9.495,3.406-20.097,4.963c-14.641,2.115-34.074,3.291-54.734,3.291
		c-20.659,0-40.096-1.176-54.734-3.291c-10.619-1.557-16.673-3.275-20.097-4.979v29.044c0.166,0.266,1.737,2.229,11.711,4.352
		c-0.032,0.016-0.083,0.031-0.131,0.031c-0.216,0.049-0.447,0.098-0.663,0.148c-0.148,0.033-0.298,0.065-0.445,0.1
		c-0.216,0.051-0.432,0.098-0.646,0.148c-0.132,0.033-0.265,0.065-0.397,0.1c-0.199,0.051-0.397,0.102-0.611,0.147
		c-0.116,0.019-0.25,0.049-0.364,0.084c-0.199,0.049-0.38,0.099-0.579,0.149c-0.1,0.029-0.214,0.062-0.314,0.08
		c-0.196,0.062-0.379,0.117-0.578,0.166c-0.082,0.033-0.166,0.05-0.265,0.065c-0.198,0.064-0.38,0.133-0.579,0.183
		c-0.065,0.019-0.132,0.033-0.182,0.05c-0.23,0.062-0.447,0.133-0.645,0.215c0,0-0.051,0-0.084,0.018
		c-0.461,0.148-0.893,0.298-1.272,0.445l0,0c-0.183,0.066-0.364,0.133-0.546,0.201c-0.033,0.016-0.067,0.03-0.1,0.049
		c-0.133,0.049-0.266,0.098-0.396,0.147c-0.033,0.017-0.066,0.049-0.116,0.049c-0.116,0.052-0.215,0.101-0.315,0.147
		c-0.049,0.017-0.099,0.033-0.131,0.052c-0.1,0.049-0.183,0.101-0.281,0.133c-0.033,0.017-0.066,0.033-0.116,0.063
		c-0.083,0.033-0.147,0.068-0.231,0.117c-0.033,0.017-0.065,0.033-0.115,0.051c-0.066,0.031-0.133,0.082-0.197,0.115
		c-0.034,0.017-0.067,0.031-0.102,0.047c-0.064,0.035-0.115,0.068-0.181,0.102c-0.017,0.034-0.05,0.052-0.083,0.067
		c-0.05,0.033-0.099,0.065-0.148,0.099c-0.033,0-0.049,0.017-0.066,0.033c-0.05,0.032-0.1,0.065-0.148,0.1
		c-0.017,0.019-0.033,0.033-0.05,0.033c-0.05,0.033-0.083,0.064-0.114,0.101c-0.018,0-0.035,0.016-0.051,0.03
		c-0.033,0.033-0.066,0.052-0.1,0.084c0,0-0.016,0.017-0.033,0.017c-0.033,0.033-0.066,0.067-0.1,0.084c0,0.017,0,0.017,0,0.017
		c-0.032,0.032-0.066,0.065-0.1,0.081c-0.016,0.033-0.033,0.051-0.066,0.084c0.562,0.646,3.986,3.522,22.313,6.02
		c14.242,1.953,32.867,3.026,52.451,3.026c19.585,0,38.228-1.073,52.452-3.026c18.311-2.496,21.75-5.373,22.312-6.02
		C-824.449-944.998-824.5-945.064-824.598-945.146L-824.598-945.146z M-837.219-953.766c0.033,0,0.082,0.017,0.115,0.017
		C-837.137-953.749-837.186-953.766-837.219-953.766z"/>
</g>
<g>
	<path fill="#2FBDB9" d="M-454.398-923.734h-138.045c-0.237,0.067-1.156,0.447-2.013,2.301c-1.678,3.634-3.351,7.408-4.466,9.952
		h150.708c-1.256-2.621-2.989-6.436-4.424-10.322C-453.223-923.384-454.036-923.685-454.398-923.734z"/>
	<path fill="#2FBDB9" d="M-523.463-1119.512c-82.304,0-149.008,66.705-149.008,148.992c0,82.285,66.704,149.008,149.008,149.008
		c82.289,0,148.992-66.723,148.992-149.008C-374.471-1052.807-441.174-1119.512-523.463-1119.512z M-595.303-1042.005
		c0-1.404,1.139-2.544,2.543-2.544h138.58c1.404,0,2.542,1.14,2.542,2.544v100.014c0,1.405-1.138,2.542-2.542,2.542h-138.58
		c-1.404,0-2.543-1.137-2.543-2.542V-1042.005z M-437.081-905.135c-0.943,1.744-3.022,3.824-7.572,3.824h-157.634
		c-4.55,0-6.63-2.08-7.572-3.824c-1.429-2.644-0.77-5.587,0.401-7.627c0.619-1.435,3.189-7.352,5.769-12.936
		c2.799-6.06,7.691-8.208,11.031-8.208h138.363c3.711,0,8.858,2.246,11.197,8.578c2.086,5.646,4.978,11.352,5.508,12.384
		C-436.353-910.9-435.609-907.857-437.081-905.135z"/>
</g>
<g>
	<path d="M150,1C67.71,1,1,67.709,1,150s66.71,149,149,149c82.291,0,149-66.709,149-149S232.291,1,150,1z M92.273,82.625
		c0-2.629,2.131-4.76,4.76-4.76c0.036,0,0.072,0.003,0.108,0.005c1.347-17.999,16.412-32.237,34.752-32.237h35.923
		c18.345,0,33.414,14.245,34.756,32.252c0.13-0.012,0.262-0.021,0.395-0.021c2.631,0,4.762,2.131,4.762,4.76v18.392
		c0,1.976-1.205,3.671-2.92,4.391v15.948h-0.002v3.682h-5.498v-3.682h1.819v-15.948c-1.715-0.72-2.92-2.415-2.92-4.391v-9.195
		h-3.253V77.85c0-14.062-11.398-25.463-25.461-25.463h-39.276c-14.063,0-25.463,11.4-25.463,25.463v13.972h-2.962v9.195
		c0,2.629-2.131,4.761-4.76,4.761c-2.629,0-4.76-2.132-4.76-4.761V82.625z M107.717,102.112c0-23.352,18.933-42.283,42.285-42.283
		c23.352,0,42.281,18.932,42.281,42.283c0,23.353-18.932,42.282-42.281,42.282C126.649,144.395,107.717,125.465,107.717,102.112z
		 M163.62,227.758h-27.239l13.621-60.915L163.62,227.758z M225.016,222.6c-1.515,1.664-3.512,2.473-6.093,2.473l-0.104-0.006
		l-0.154,0.021c-0.021,0.003-0.061,0.003-0.111,0.003c-0.744,0-2.615-0.318-3.96-3.238c-0.265-0.888-0.983-2.974-2.911-2.974
		c-2.312,0-2.604,2.628-2.697,3.491l-0.017,0.121c-0.058,0.539-0.133,1.062-0.221,1.58c-0.021,0.107-0.042,0.216-0.063,0.322
		c-0.074,0.418-0.16,0.832-0.252,1.238c-0.015,0.074-0.037,0.15-0.054,0.229c-0.108,0.439-0.226,0.873-0.349,1.297
		c-0.008,0.033-0.016,0.064-0.028,0.098c-0.135,0.471-0.289,0.926-0.444,1.371l-0.002,0.003c-1.732,4.867-4.592,8.536-7.023,10.979
		c-9.746,9.791-26.387,14.758-49.449,14.758h-2.174c-23.063,0-39.7-4.967-49.447-14.758c-2.193-2.205-4.737-5.41-6.486-9.592
		c-0.001,0-0.001-0.002-0.001-0.006c-0.462-1.1-0.867-2.265-1.197-3.496c-0.013-0.06-0.026-0.117-0.042-0.176
		c-0.132-0.509-0.248-1.029-0.354-1.562c-0.028-0.144-0.055-0.287-0.083-0.434c-0.108-0.604-0.205-1.218-0.274-1.854l-0.012-0.122
		c-0.098-0.863-0.39-3.491-2.7-3.491c-1.926,0-2.647,2.086-2.912,2.975c-1.344,2.92-3.214,3.237-3.962,3.237
		c-0.052,0-0.088,0-0.061,0.004l-0.308-0.021c-2.582,0-4.572-0.807-6.089-2.467c-4.117-4.51-3.341-13.605-3.332-13.694l0.009-0.203
		c0-1.093,0.034-2.164,0.09-3.222c0.019-0.317,0.046-0.629,0.066-0.947c0.05-0.746,0.109-1.49,0.185-2.223
		c0.038-0.334,0.079-0.666,0.12-0.998c0.087-0.724,0.188-1.438,0.302-2.146c0.045-0.289,0.094-0.581,0.144-0.869
		c0.141-0.793,0.299-1.577,0.469-2.35c0.041-0.181,0.076-0.362,0.116-0.538c0.933-4.032,2.277-7.787,3.945-11.289
		c0-0.001,0-0.001,0.004-0.002c1.01-2.121,2.139-4.145,3.37-6.081c8.617-13.543,22.181-22.655,34.312-28.537
		c2.252-1.091,4.602-2.145,6.998-3.138c0.814,0.532,1.648,1.036,2.487,1.521c0.142,0.082,0.282,0.163,0.424,0.244
		c0.821,0.466,1.653,0.904,2.493,1.323c0.132,0.064,0.262,0.126,0.396,0.19c1.799,0.875,3.639,1.645,5.518,2.307
		c0.062,0.021,0.123,0.046,0.188,0.067c0.956,0.33,1.922,0.633,2.893,0.91c0.05,0.014,0.101,0.027,0.149,0.041
		c3.033,0.852,6.144,1.428,9.305,1.723l-17.824,79.73h45.541L155.52,154.7c0,0,0.004-0.003,0.01-0.003
		c3.084-0.288,6.121-0.848,9.089-1.666c0.053-0.016,0.106-0.028,0.164-0.043c0.944-0.266,1.883-0.559,2.812-0.872
		c0.077-0.026,0.156-0.056,0.233-0.082c1.829-0.636,3.624-1.373,5.38-2.209c0.134-0.063,0.268-0.124,0.4-0.188
		c0.824-0.402,1.638-0.824,2.44-1.268c0.144-0.081,0.287-0.165,0.433-0.246c0.822-0.465,1.641-0.947,2.44-1.457
		c2.392,1.005,4.737,2.075,6.992,3.185c13.778,6.79,29.435,17.852,37.313,34.981c0,0.003,0,0.003,0.002,0.004
		c1.176,2.559,2.179,5.252,2.974,8.086c0.045,0.159,0.086,0.323,0.127,0.482c0.204,0.744,0.394,1.496,0.565,2.259
		c0.062,0.267,0.115,0.534,0.172,0.802c0.143,0.672,0.273,1.352,0.394,2.039c0.056,0.318,0.108,0.639,0.159,0.961
		c0.102,0.656,0.189,1.324,0.271,1.995c0.041,0.345,0.084,0.685,0.123,1.03c0.071,0.699,0.123,1.414,0.172,2.133
		c0.019,0.312,0.047,0.624,0.063,0.943c0.052,1.031,0.082,2.078,0.082,3.142l0.013,0.203
		C228.581,211.441,228.443,218.835,225.016,222.6z"/>
</g>
<path fill="#31BDB9" stroke="#FFFFFF" stroke-width="6" stroke-miterlimit="10" d="M-406.599-821.512"/>
<g>
	<path fill="#2FBDB9" d="M-200.781-1119.512c-82.291,0-149,66.709-149,149s66.709,149,149,149s149-66.709,149-149
		S-118.49-1119.512-200.781-1119.512z M-227.539-1033.689c0.348-0.652,1.025-1.061,1.766-1.061h9.542l-0.001-29.703
		c0-0.53,0.211-1.039,0.586-1.414s0.884-0.586,1.414-0.586h21.871c0.529,0,1.039,0.211,1.414,0.586s0.586,0.884,0.586,1.414
		l-0.002,29.703h9.543c0.739,0,1.418,0.408,1.766,1.061c0.348,0.653,0.306,1.444-0.107,2.058l-22.477,33.326
		c-0.373,0.552-0.994,0.882-1.658,0.882c-0.666,0-1.287-0.33-1.658-0.882l-22.477-33.326
		C-227.846-1032.245-227.887-1033.036-227.539-1033.689z M-229.152-974.768v20.412v2.189c0,1.209,0,2.189,0,2.189v53.406h-34.145
		v-53.406h19.551c0.807,0,1.548-0.443,1.929-1.154l0.554-1.035l12.111-22.604V-974.768L-229.152-974.768z M-144.577-896.57h-80.197
		v-53.406c0,0,0-0.98,0-2.189v-2.189v-23.686l24.797,25.875l1.452,1.516c0.412,0.43,0.982,0.674,1.58,0.674h52.368V-896.57z
		 M-196.012-954.355l-29.371-30.646c-0.017-0.018-0.033-0.031-0.051-0.049c-0.02-0.02-0.038-0.039-0.059-0.057
		c-0.02-0.02-0.041-0.037-0.062-0.055c-0.012-0.01-0.022-0.02-0.034-0.027c-0.012-0.01-0.022-0.02-0.034-0.029
		c-0.035-0.026-0.072-0.053-0.109-0.078c-0.012-0.008-0.023-0.016-0.035-0.023c-0.002-0.002-0.006-0.004-0.009-0.006
		c-0.009-0.006-0.018-0.01-0.026-0.016c-0.035-0.021-0.069-0.045-0.105-0.064c-0.018-0.01-0.036-0.018-0.054-0.027
		c-0.007-0.002-0.014-0.006-0.021-0.01c-0.014-0.006-0.025-0.014-0.039-0.02c-0.014-0.006-0.027-0.014-0.042-0.02
		c-0.021-0.01-0.042-0.018-0.062-0.025c-0.032-0.014-0.065-0.026-0.099-0.039c-0.008-0.004-0.016-0.008-0.023-0.01
		c-0.014-0.004-0.029-0.008-0.043-0.014c-0.035-0.01-0.068-0.021-0.104-0.029c-0.012-0.004-0.023-0.008-0.035-0.012
		c-0.012-0.002-0.022-0.004-0.033-0.006c-0.001,0-0.002-0.002-0.004-0.002c-0.01-0.002-0.02-0.004-0.029-0.008
		c-0.023-0.004-0.047-0.008-0.07-0.012s-0.047-0.01-0.07-0.012c-0.025-0.006-0.051-0.008-0.076-0.01
		c-0.017-0.002-0.033-0.006-0.049-0.006c-0.017-0.002-0.033-0.004-0.049-0.004c-0.035-0.004-0.07-0.004-0.105-0.006
		c-0.025,0-0.052,0-0.078,0c-0.008,0-0.017,0-0.024,0c-0.007,0-0.015,0.002-0.022,0.002c-0.035,0.002-0.07,0.002-0.105,0.006
		c-0.027,0.002-0.055,0.006-0.081,0.01c-0.003,0-0.005,0-0.008,0c-0.009,0-0.017,0-0.024,0.002c-0.005,0-0.01,0.002-0.014,0.002
		c-0.015,0.004-0.029,0.006-0.044,0.006c-0.027,0.006-0.054,0.012-0.081,0.018c-0.029,0.006-0.059,0.012-0.088,0.021
		c-0.026,0.006-0.053,0.014-0.079,0.02c-0.028,0.01-0.058,0.019-0.087,0.027c-0.025,0.01-0.051,0.018-0.076,0.027
		c-0.005,0.002-0.009,0.004-0.014,0.004c-0.008,0.004-0.018,0.008-0.025,0.01c-0.004,0.002-0.008,0.004-0.012,0.006
		c-0.012,0.004-0.023,0.01-0.035,0.014c-0.024,0.012-0.049,0.021-0.072,0.033c-0.029,0.014-0.058,0.027-0.086,0.043
		c0,0-0.002,0-0.003,0c-0.008,0.004-0.017,0.008-0.024,0.012c-0.014,0.008-0.025,0.016-0.039,0.023
		c-0.029,0.016-0.057,0.033-0.084,0.051c-0.021,0.012-0.042,0.025-0.062,0.039c-0.027,0.021-0.055,0.039-0.081,0.06
		c-0.02,0.014-0.039,0.027-0.058,0.043c-0.023,0.02-0.047,0.039-0.069,0.059c-0.01,0.008-0.021,0.016-0.03,0.025
		c-0.009,0.009-0.021,0.02-0.031,0.027c-0.029,0.027-0.056,0.057-0.083,0.084c-0.013,0.014-0.026,0.025-0.038,0.039
		c-0.004,0.004-0.008,0.01-0.013,0.014c-0.007,0.008-0.014,0.018-0.021,0.025c-0.026,0.029-0.053,0.059-0.076,0.09
		c-0.011,0.014-0.021,0.027-0.031,0.041c-0.008,0.012-0.016,0.021-0.023,0.033c-0.007,0.01-0.016,0.02-0.022,0.031
		c-0.009,0.012-0.017,0.023-0.024,0.037c-0.012,0.016-0.021,0.033-0.033,0.051c-0.02,0.033-0.04,0.066-0.059,0.1
		c-0.004,0.008-0.01,0.016-0.014,0.023l-16.164,30.166h-44.539l17.357-32.393h129.227l31.045,32.393H-196.012L-196.012-954.355z"/>
</g>
<g>
	<path fill="#2FBDB9" d="M1081.547,181.264c-17.602,0-30.299-3.791-37.736-11.264c-1.674-1.684-3.615-4.129-4.951-7.32
		c0,0,0-0.002,0-0.005c-0.354-0.839-0.662-1.728-0.914-2.669c-0.01-0.044-0.02-0.089-0.031-0.133
		c-0.102-0.389-0.188-0.785-0.27-1.191c-0.023-0.109-0.043-0.22-0.064-0.33c-0.082-0.463-0.154-0.931-0.209-1.414l-0.01-0.095
		c-0.074-0.657-0.297-2.663-2.061-2.663c-1.471,0-2.021,1.59-2.223,2.268c-1.025,2.23-2.453,2.473-3.023,2.473
		c-0.039,0-0.066,0-0.047,0.004l-0.234-0.018c-1.971,0-3.49-0.615-4.645-1.881c-2.918-3.196-2.615-9.399-2.555-10.329
		c-0.119-0.019-0.232-0.05-0.363-0.05c-2.256,0-2.541,2.563-2.633,3.405l-0.016,0.119c-0.057,0.524-0.131,1.035-0.215,1.54
		c-0.021,0.105-0.043,0.21-0.062,0.314c-0.074,0.408-0.156,0.812-0.246,1.207c-0.016,0.072-0.037,0.147-0.053,0.225
		c-0.105,0.43-0.219,0.852-0.338,1.266c-0.01,0.032-0.02,0.062-0.029,0.096c-0.133,0.457-0.281,0.9-0.436,1.336l-0.002,0.004
		c-1.689,4.748-4.479,8.326-6.848,10.71c-9.512,9.551-25.74,14.396-48.236,14.396h-2.119c-22.498,0-38.725-4.845-48.232-14.396
		c-2.139-2.15-4.621-5.276-6.326-9.354c-0.002-0.002-0.002-0.004-0.002-0.007c-0.449-1.071-0.846-2.208-1.166-3.411
		c-0.014-0.057-0.027-0.113-0.041-0.17c-0.129-0.496-0.242-1.004-0.346-1.523c-0.029-0.141-0.055-0.28-0.082-0.422
		c-0.105-0.59-0.199-1.188-0.268-1.809l-0.012-0.119c-0.096-0.842-0.379-3.405-2.633-3.405c-0.113,0-0.209,0.029-0.314,0.043
		c0.168,2.027,0.021,7.509-2.547,10.327c-1.156,1.271-2.68,1.889-4.65,1.889l-0.082-0.004l-0.115,0.017
		c-0.018,0.002-0.047,0.002-0.084,0.002c-0.57,0-1.998-0.243-3.023-2.472c-0.203-0.678-0.752-2.27-2.223-2.27
		c-1.764,0-1.986,2.006-2.059,2.664l-0.012,0.094c-0.045,0.41-0.104,0.811-0.17,1.205c-0.016,0.082-0.031,0.164-0.047,0.246
		c-0.061,0.318-0.123,0.635-0.193,0.944c-0.012,0.058-0.029,0.114-0.041,0.175c-0.082,0.336-0.17,0.666-0.264,0.99
		c-0.008,0.025-0.016,0.049-0.023,0.074c-0.104,0.357-0.221,0.705-0.34,1.046l-0.002,0.003c-1.322,3.715-3.504,6.516-5.359,8.38
		c-7.439,7.472-20.137,11.263-37.738,11.263h-0.166C869.189,220.922,914.549,247,966,247c51.531,0,96.949-26.161,123.705-65.924
		c-2.086,0.123-4.252,0.188-6.498,0.188H1081.547z"/>
	<path fill="#2FBDB9" d="M822.115,100.003c0.109,0.062,0.217,0.125,0.324,0.188c0.627,0.354,1.262,0.689,1.904,1.009
		c0.1,0.05,0.197,0.097,0.301,0.146c1.373,0.668,2.777,1.255,4.213,1.761c0.045,0.016,0.094,0.034,0.143,0.052
		c0.729,0.252,1.467,0.483,2.209,0.695c0.037,0.011,0.074,0.021,0.113,0.031c2.312,0.649,4.689,1.09,7.102,1.312l-10.777,48.201
		c1.732,4.318,3.654,8.539,5.768,12.647h26.162l-13.604-60.847c0,0,0.004-0.002,0.008-0.002c2.354-0.22,4.672-0.646,6.936-1.271
		c0.041-0.013,0.084-0.022,0.127-0.034c0.721-0.202,1.436-0.424,2.145-0.665c0.061-0.021,0.119-0.042,0.178-0.062
		c1.396-0.484,2.768-1.047,4.105-1.686c0.104-0.048,0.205-0.096,0.307-0.145c0.629-0.307,1.25-0.629,1.863-0.967
		c0.109-0.062,0.219-0.126,0.33-0.188c0.627-0.354,1.252-0.722,1.863-1.111c1.824,0.767,3.613,1.583,5.336,2.43
		c6.84,3.371,14.277,8.134,20.303,14.642c0.455-1.152,0.934-2.288,1.459-3.389c0-0.002,0-0.002,0.004-0.003
		c0.984-2.068,2.084-4.043,3.287-5.931c8.404-13.21,21.633-22.099,33.465-27.837c2.199-1.063,4.49-2.091,6.828-3.06
		c0.795,0.519,1.607,1.011,2.426,1.483c0.139,0.081,0.275,0.159,0.414,0.239c0.801,0.454,1.611,0.882,2.432,1.289
		c0.129,0.064,0.256,0.124,0.389,0.187c1.754,0.854,3.549,1.604,5.381,2.251c0.061,0.02,0.121,0.043,0.184,0.064
		c0.934,0.324,1.875,0.619,2.822,0.89c0.049,0.014,0.098,0.026,0.145,0.04c2.957,0.83,5.992,1.393,9.076,1.68l-17.387,77.77h44.42
		L967.43,84.044c0,0,0.006-0.001,0.01-0.001c3.008-0.281,5.971-0.826,8.865-1.624c0.053-0.017,0.105-0.029,0.16-0.044
		c0.922-0.259,1.836-0.543,2.742-0.851c0.076-0.025,0.152-0.054,0.227-0.08c1.785-0.618,3.537-1.338,5.248-2.153
		c0.131-0.062,0.262-0.123,0.393-0.186c0.805-0.393,1.598-0.804,2.379-1.235c0.143-0.079,0.281-0.161,0.424-0.24
		c0.803-0.453,1.602-0.923,2.383-1.422c2.33,0.981,4.619,2.023,6.816,3.106c13.441,6.623,28.711,17.413,36.396,34.122
		c0,0.002,0,0.002,0.004,0.004c0.408,0.89,0.787,1.802,1.15,2.725c6.164-6.669,13.834-11.516,20.875-14.93
		c1.719-0.832,3.512-1.636,5.34-2.395c0.623,0.406,1.26,0.792,1.898,1.161c0.109,0.062,0.215,0.125,0.324,0.188
		c0.627,0.354,1.262,0.689,1.902,1.009c0.102,0.05,0.199,0.097,0.303,0.146c1.373,0.668,2.775,1.255,4.211,1.761
		c0.047,0.016,0.094,0.034,0.143,0.052c0.73,0.252,1.469,0.483,2.209,0.695c0.037,0.011,0.076,0.021,0.115,0.031
		c2.312,0.649,4.688,1.09,7.1,1.312l-13.604,60.849h33.146c0.379-0.736,0.744-1.48,1.111-2.227l-13.105-58.62
		c0,0,0.004-0.002,0.008-0.002c2.355-0.22,4.672-0.646,6.938-1.271c0.041-0.013,0.082-0.022,0.125-0.034
		c0.721-0.202,1.438-0.424,2.145-0.665c0.059-0.021,0.119-0.042,0.178-0.062c1.396-0.484,2.768-1.047,4.105-1.686
		c0.102-0.048,0.205-0.096,0.307-0.145c0.629-0.307,1.248-0.629,1.861-0.967c0.109-0.062,0.221-0.126,0.33-0.188
		c0.629-0.354,1.252-0.722,1.863-1.111c1.824,0.767,3.615,1.583,5.336,2.43c1.664,0.82,3.365,1.731,5.072,2.721
		c0.084-2.063,0.139-4.135,0.139-6.219c0-7.617-0.574-15.101-1.678-22.41c-4.363,12.651-16.367,21.744-30.502,21.744
		c-17.822,0-32.271-14.447-32.271-32.268c0-17.821,14.449-32.269,32.271-32.269c7.807,0,14.965,2.772,20.545,7.386
		C1080.789-13.391,1027.787-51,966-51c-59.686,0-111.164,35.098-134.947,85.775c3.473-1.278,7.227-1.978,11.145-1.978
		c17.82,0,32.27,14.447,32.27,32.269c0,17.82-14.447,32.268-32.27,32.268c-9.914,0-18.777-4.475-24.699-11.51
		C817.174,89.841,817,93.9,817,98c0,0.747,0.018,1.49,0.027,2.234c1.049-0.477,2.109-0.944,3.191-1.393
		C820.84,99.248,821.477,99.634,822.115,100.003z M1093.213,160.955h-20.787l10.395-46.488L1093.213,160.955z M975.889,155.309
		H949.32l13.285-59.417L975.889,155.309z M962.605-8.491c22.775,0,41.24,18.465,41.24,41.243c0,22.777-18.465,41.242-41.24,41.242
		c-22.779,0-41.246-18.465-41.246-41.242C921.359,9.974,939.826-8.491,962.605-8.491z M852.59,160.955h-20.787l10.395-46.488
		L852.59,160.955z"/>
</g>
<g>
	<path fill="#2FBDB9" d="M1233.441,721.385c-0.857,0.006-1.678,0.311-2.287,0.906c-0.609,0.598-0.951,1.412-0.951,2.266v9.068
		c0,1.719,1.369,3.127,3.088,3.172c17.24,0.457,31.176,14.316,31.725,31.557c0.055,1.711,1.457,3.072,3.17,3.072h9.076
		c0.855,0,1.674-0.348,2.271-0.959c0.598-0.613,0.922-1.439,0.898-2.295C1279.783,742.477,1259.143,721.926,1233.441,721.385z"/>
	<path fill="#2FBDB9" d="M1232.879,694.961c-0.873-0.006-1.67,0.314-2.273,0.912c-0.607,0.598-0.947,1.41-0.947,2.26v10.359
		c0,1.73,1.387,3.143,3.117,3.172c31.219,0.551,56.195,25.438,56.857,56.656c0.037,1.725,1.447,3.104,3.174,3.104h10.359
		c0.852,0,1.666-0.344,2.262-0.949c0.598-0.607,0.926-1.43,0.91-2.279C1305.604,727.74,1273.336,695.572,1232.879,694.961z"/>
	<path fill="#2FBDB9" d="M1244.166,750.002c-6.066,0-11.002,4.934-11.002,11s4.936,11.004,11.002,11.004s11.002-4.938,11.002-11.004
		S1250.232,750.002,1244.166,750.002z"/>
	<path fill="#2FBDB9" d="M1258,601c-82.291,0-149,66.711-149,149c0,82.291,66.709,149,149,149c82.289,0,149-66.709,149-149
		C1407,667.711,1340.289,601,1258,601z M1258,813.566c-8.004,0-15.998-0.707-23.82-2.104c-8.898,15.305-21.498,30.383-22.068,31.062
		c-1.064,1.27-2.609,1.951-4.186,1.951c-0.822,0-1.652-0.184-2.426-0.57c-2.258-1.119-3.455-3.641-2.896-6.1
		c2.881-12.672,4.201-24.293,3.939-34.604c-32.354-14.041-52.293-40.092-52.293-68.656c0-43.574,46.541-79.023,103.75-79.023
		c57.207,0,103.748,35.449,103.748,79.023C1361.748,778.119,1315.207,813.566,1258,813.566z"/>
</g>
<g>
	<path fill="#2FBDB9" d="M162.029-1119.512c-82.292,0-149,66.709-149,149s66.709,149,149,149c82.291,0,149-66.709,149-149
		S244.32-1119.512,162.029-1119.512z M165.363-880.968c-13.34,0-26.709-3.075-38.664-8.892c-0.201-0.099-0.354-0.274-0.424-0.486
		c-0.068-0.212-0.05-0.444,0.056-0.642l12.661-23.987c0.207-0.389,0.682-0.547,1.08-0.362c7.862,3.683,16.608,5.628,25.292,5.628
		c32.89,0,59.646-26.757,59.646-59.646c0-22.157-12.185-42.369-31.8-52.745c-8.533-4.513-18.162-6.899-27.847-6.899
		c-32.887,0-59.645,26.756-59.645,59.645c0,1.139,0.926,2.063,2.063,2.063h23.084c0.332,0,0.633,0.202,0.762,0.51
		c0.127,0.31,0.057,0.664-0.18,0.9l-38.867,38.866c-0.309,0.31-0.857,0.31-1.167,0l-38.866-38.866
		c-0.236-0.237-0.307-0.592-0.179-0.9s0.429-0.51,0.763-0.51h21.783c1.138,0,2.063-0.926,2.063-2.063
		c0-48.736,39.649-88.384,88.385-88.384c14.367,0,28.638,3.53,41.265,10.211c29.065,15.374,47.121,45.328,47.121,78.173
		C253.75-920.618,214.102-880.968,165.363-880.968z M157.352-966.981l2.836-46.322c0.025-0.436,0.387-0.775,0.824-0.775h7.584
		c0.437,0,0.797,0.341,0.823,0.776l2.444,40.85l27.359,30.772c0.291,0.327,0.276,0.824-0.031,1.132l-5.363,5.363
		c-0.16,0.16-0.373,0.241-0.583,0.241c-0.196,0-0.392-0.068-0.548-0.208l-35.071-31.162
		C157.436-966.482,157.334-966.729,157.352-966.981z"/>
</g>
<g>
	<path fill="#31BDB9" d="M1284.311-191.021h-44.617c-6.266,0-11.363,5.1-11.363,11.365v0.967c0,0.727,0.592,1.316,1.318,1.316h6.695
		c0.729,0,1.316-0.59,1.316-1.316v-0.967c0-1.121,0.912-2.031,2.033-2.031h44.617c1.117,0,2.027,0.91,2.027,2.031v0.967
		c0,0.727,0.592,1.316,1.318,1.316h6.695c0.729,0,1.318-0.59,1.318-1.316v-0.967
		C1295.672-185.922,1290.574-191.021,1284.311-191.021z"/>
	<path fill="#31BDB9" d="M1284.311-241.494h-44.617c-6.266,0-11.363,5.096-11.363,11.361v0.969c0,0.727,0.592,1.316,1.318,1.316
		h6.695c0.729,0,1.316-0.59,1.316-1.316v-0.969c0-1.119,0.912-2.031,2.033-2.031h44.617c1.117,0,2.027,0.912,2.027,2.031v0.969
		c0,0.727,0.592,1.316,1.318,1.316h6.695c0.729,0,1.318-0.59,1.318-1.316v-0.969
		C1295.672-236.398,1290.574-241.494,1284.311-241.494z"/>
	<path fill="#31BDB9" d="M1262-391c-82.291,0-149,66.709-149,149c0,82.29,66.709,149,149,149c82.289,0,149-66.71,149-149
		C1411-324.291,1344.289-391,1262-391z M1199.742-312.992l11.307-11.309c0.248-0.246,0.582-0.385,0.934-0.385h100.039
		c0.35,0,0.688,0.139,0.934,0.385l11.309,11.309c0.377,0.377,0.488,0.943,0.285,1.438c-0.205,0.492-0.686,0.814-1.221,0.814
		h-122.652c-0.533,0-1.016-0.322-1.217-0.814C1199.252-312.049,1199.365-312.615,1199.742-312.992z M1325.432-160.631
		c0,0.729-0.59,1.316-1.318,1.316h-124.227c-0.73,0-1.318-0.588-1.318-1.316v-43.781c0-0.729,0.588-1.316,1.318-1.316h124.227
		c0.73,0,1.318,0.588,1.318,1.316V-160.631z M1325.432-211.105c0,0.727-0.59,1.318-1.318,1.318h-124.227
		c-0.73,0-1.318-0.592-1.318-1.318v-43.783c0-0.725,0.588-1.316,1.318-1.316h124.227c0.73,0,1.318,0.592,1.318,1.316V-211.105z
		 M1325.432-261.586c0,0.729-0.59,1.318-1.318,1.318h-124.227c-0.73,0-1.318-0.59-1.318-1.318v-43.779
		c0-0.729,0.588-1.318,1.318-1.318h124.227c0.73,0,1.318,0.59,1.318,1.318V-261.586z"/>
	<path fill="#31BDB9" d="M1284.311-291.975h-44.617c-6.266,0-11.363,5.098-11.363,11.363v0.971c0,0.729,0.592,1.32,1.318,1.32h6.695
		c0.729,0,1.316-0.592,1.316-1.32v-0.971c0-1.117,0.912-2.029,2.033-2.029h44.617c1.117,0,2.027,0.912,2.027,2.029v0.971
		c0,0.729,0.592,1.32,1.318,1.32h6.695c0.729,0,1.318-0.592,1.318-1.32v-0.971C1295.672-286.877,1290.574-291.975,1284.311-291.975z
		"/>
</g>
<path fill="#2FBDB9" d="M482-451c-82.289,0-149,66.71-149,149s66.711,149,149,149s149-66.71,149-149S564.289-451,482-451z
	 M536.977-386.238c13.125,8.583,24.221,20.288,32.086,33.853c0.129,0.222,0.086,0.503-0.104,0.676
	c-7.105,6.491-14.689,12.133-22.545,16.767c-0.088,0.05-0.182,0.075-0.277,0.075c-0.115,0-0.229-0.036-0.326-0.108
	c-1.211-0.906-2.625-1.385-4.088-1.385c-0.275,0-0.553,0.039-0.846,0.081l-0.131,0.019c-0.221,0.031-0.439-0.077-0.551-0.271
	c-8.191-14.622-19.221-27.622-32.771-38.64c-0.176-0.142-0.244-0.376-0.176-0.591c0.35-1.078,0.52-2.058,0.52-2.996
	c0-0.24-0.031-0.481-0.066-0.737c-0.018-0.127-0.035-0.253-0.049-0.38c-0.027-0.263,0.139-0.508,0.393-0.581
	c13.098-3.74,23.523-5.279,28.572-5.864C536.742-386.338,536.869-386.308,536.977-386.238z M534.865-329.468
	c0.008,0.046,0.018,0.109,0.018,0.186c0,0.214-0.125,0.407-0.32,0.496c-9.971,4.52-20.592,7.702-31.568,9.462
	c-0.027,0.004-0.057,0.006-0.086,0.006c-0.184,0-0.355-0.093-0.459-0.251c-0.969-1.519-2.459-2.562-4.191-2.942
	c-0.225-0.048-0.395-0.23-0.426-0.457c-1.898-13.944-1.514-29.303,1.148-45.651c0.037-0.233,0.221-0.415,0.453-0.451
	c1.6-0.249,3.061-0.86,4.348-1.82c0.201-0.149,0.479-0.144,0.67,0.016c0.963,0.786,1.92,1.591,2.846,2.392
	c11.75,10.173,21.352,21.948,28.539,34.994c0.094,0.169,0.09,0.374-0.008,0.539c-0.641,1.092-0.965,2.251-0.965,3.449
	C534.863-329.494,534.863-329.481,534.865-329.468z M500.6-310.506c1.176-0.808,2.049-1.973,2.521-3.37
	c0.064-0.191,0.23-0.332,0.432-0.363c11.539-1.823,22.752-5.192,33.33-10.014c0.186-0.085,0.404-0.058,0.564,0.069
	c0.965,0.773,2.113,1.271,3.322,1.439c0.188,0.026,0.35,0.15,0.426,0.326c2.277,5.321,4.193,10.756,5.699,16.149
	c0.059,0.213-0.016,0.442-0.191,0.578c-1.625,1.254-2.629,3.075-2.822,5.128c-0.02,0.203-0.152,0.38-0.344,0.455
	c-9.854,3.888-18.857,8.616-26.764,14.054c-0.094,0.063-0.201,0.096-0.309,0.096c-0.105,0-0.211-0.031-0.305-0.093
	c-1.225-0.817-2.646-1.25-4.113-1.25c-0.576,0-1.176,0.087-1.885,0.275c-0.238,0.062-0.488-0.042-0.609-0.255
	c-0.928-1.607-1.736-3.106-2.475-4.584c-2.768-5.549-5.02-11.623-6.697-18.056C500.324-310.142,500.41-310.376,500.6-310.506z
	 M503.008-387.614c1.041-3.976,2.205-7.948,3.371-11.49c0.09-0.272,0.373-0.428,0.652-0.357c7.354,1.882,14.562,4.651,21.426,8.235
	c0.207,0.107,0.322,0.335,0.285,0.566c-0.035,0.231-0.215,0.413-0.445,0.453c-7.32,1.261-14.848,3.024-22.367,5.243
	c-0.051,0.014-0.104,0.022-0.154,0.022c-0.156,0-0.309-0.068-0.412-0.191c-0.66-0.767-1.375-1.401-2.123-1.887
	C503.041-387.147,502.947-387.387,503.008-387.614z M464.529-401.061c5.844-1.024,11.723-1.544,17.471-1.544
	c6.271,0,12.629,0.605,18.896,1.799c0.154,0.029,0.289,0.123,0.367,0.26c0.08,0.135,0.098,0.298,0.049,0.447
	c-1.191,3.598-2.307,7.346-3.314,11.142c-0.062,0.229-0.266,0.395-0.504,0.405c-1.988,0.088-3.879,0.768-5.467,1.967
	c-0.098,0.073-0.215,0.11-0.33,0.11c-0.1,0-0.197-0.027-0.285-0.082c-8.5-5.263-17.58-9.791-26.984-13.459
	c-0.229-0.089-0.369-0.318-0.346-0.562C464.105-400.82,464.289-401.018,464.529-401.061z M492.811-321.622
	c0.027,0.188-0.047,0.377-0.193,0.497c-0.926,0.763-1.627,1.754-2.027,2.864c-0.074,0.203-0.264,0.345-0.48,0.358
	c-2.855,0.176-5.779,0.266-8.688,0.266l0,0c-7.6,0-15.467-0.608-23.383-1.809c-0.217-0.033-0.395-0.194-0.445-0.406
	c-2.129-8.517-5.055-17.193-8.693-25.792c-0.08-0.188-0.049-0.405,0.084-0.562c1.094-1.308,1.672-2.87,1.672-4.517
	c0-0.378-0.055-0.76-0.111-1.118c-0.031-0.197,0.049-0.396,0.207-0.518c5.451-4.173,11.256-8.025,17.248-11.452
	c6.506-3.722,13.533-7.112,20.883-10.076c0.248-0.1,0.531-0.007,0.67,0.222c0.951,1.561,2.322,2.826,3.967,3.657
	c0.213,0.107,0.332,0.339,0.293,0.574C491.02-352.394,490.684-336.307,492.811-321.622z M407.256-291.938
	c-0.207-0.139-0.295-0.401-0.211-0.636c3.334-9.382,7.582-18.174,12.631-26.135c0.125-0.195,0.355-0.291,0.582-0.239
	c0.521,0.12,1.002,0.179,1.465,0.179c2.023,0,3.908-0.938,5.168-2.572c0.141-0.182,0.381-0.256,0.6-0.187
	c8.594,2.771,17.227,4.932,25.656,6.423c0.219,0.038,0.393,0.203,0.439,0.419c5.24,23.841,3.982,46.324-3.74,66.827
	c-0.076,0.202-0.266,0.34-0.48,0.353c-1.148,0.064-2.234,0.417-3.143,1.018c-0.09,0.061-0.195,0.091-0.301,0.091
	c-0.104,0-0.205-0.029-0.295-0.087c-14.045-9.077-26.338-20.687-36.539-34.506c-0.141-0.191-0.141-0.454,0-0.646
	c0.926-1.262,1.416-2.736,1.416-4.264C410.504-288.328,409.289-290.586,407.256-291.938z M427.316-329.366
	c4.049-5.114,8.59-10.014,13.502-14.562c0.146-0.135,0.354-0.18,0.543-0.116c0.789,0.264,1.518,0.393,2.225,0.393
	c0.02,0,0.057-0.006,0.094-0.012c0.055-0.007,0.105-0.014,0.158-0.017c0.232-0.016,0.447,0.118,0.539,0.332
	c3.092,7.354,5.648,14.78,7.6,22.074c0.049,0.183,0,0.376-0.127,0.513c-0.105,0.112-0.25,0.174-0.4,0.174
	c-0.033,0-0.068-0.003-0.102-0.01c-7.584-1.458-15.303-3.46-22.941-5.95c-0.178-0.058-0.311-0.202-0.357-0.383
	c-0.166-0.65-0.426-1.259-0.768-1.811C427.16-328.936,427.174-329.185,427.316-329.366z M426.787-386.09
	c8.09-5.318,16.857-9.426,26.066-12.209c0.102-0.031,0.215-0.031,0.318,0.001c8.387,2.603,21.297,7.49,35.172,15.993
	c0.215,0.131,0.311,0.39,0.236,0.628c-0.271,0.86-0.418,1.688-0.451,2.535c-0.01,0.214-0.143,0.403-0.342,0.483
	c-14.646,5.905-27.934,13.361-39.486,22.161c-0.098,0.074-0.213,0.111-0.33,0.111c-0.109,0-0.221-0.034-0.314-0.101
	c-1.199-0.849-2.602-1.299-4.053-1.302c-0.207,0-0.395-0.116-0.486-0.299c-6.145-12.139-12.35-21.508-16.473-27.229
	c-0.086-0.12-0.121-0.271-0.094-0.417C426.578-385.88,426.664-386.008,426.787-386.09z M390.514-343.844
	c6.99-15.255,17.779-28.639,31.199-38.7c0.115-0.088,0.264-0.124,0.408-0.103s0.273,0.102,0.359,0.219
	c3.996,5.533,10.016,14.596,15.984,26.345c0.104,0.201,0.068,0.447-0.084,0.614c-1.203,1.316-1.865,3.002-1.865,4.746
	c0,1.037,0.242,2.063,0.719,3.052c0.105,0.215,0.057,0.473-0.117,0.635c-5.055,4.729-9.723,9.798-13.877,15.067
	c-0.121,0.155-0.316,0.231-0.51,0.202c-0.332-0.051-0.674-0.104-1.01-0.104c-1.385,0-2.725,0.447-3.869,1.291
	c-0.098,0.07-0.209,0.106-0.324,0.106c-0.066,0-0.133-0.013-0.197-0.037c-12.645-4.929-22.088-10.032-26.594-12.635
	C390.493-343.285,390.396-343.588,390.514-343.844z M388.094-338.091c0.057-0.147,0.176-0.264,0.324-0.317
	c0.15-0.054,0.314-0.038,0.452,0.039c4.435,2.526,13.704,7.483,25.979,12.316c0.215,0.084,0.354,0.296,0.344,0.528
	c-0.002,0.065-0.01,0.123-0.018,0.165c-0.002,0.014-0.006,0.028-0.006,0.043c0,1.033,0.266,2.062,0.793,3.053
	c0.092,0.175,0.084,0.385-0.023,0.551c-5.664,8.795-10.336,18.354-13.885,28.411c-0.062,0.177-0.213,0.31-0.396,0.35l-0.01,0.004
	c-0.041,0.014-0.082,0.026-0.123,0.035c-0.039,0.008-0.076,0.012-0.115,0.012c-0.188,0-0.367-0.099-0.469-0.267
	c-8.325-14.005-13.129-27.354-15.693-36.085c-0.027-0.099-0.029-0.204-0.001-0.303C386.079-332.474,387.036-335.346,388.094-338.091
	z M393.882-255.571c-0.024,0.24-0.202,0.436-0.438,0.481c-0.035,0.007-0.069,0.01-0.104,0.01c-0.199,0-0.388-0.11-0.482-0.292
	c-3.696-7.055-6.545-14.533-8.471-22.229c-1.984-7.942-2.99-16.151-2.99-24.398c0-5.305,0.432-10.693,1.283-16.015
	c0.039-0.244,0.238-0.433,0.484-0.456c0.247-0.023,0.479,0.121,0.564,0.353c3.601,9.751,8.102,19.132,13.377,27.88
	c0.105,0.175,0.105,0.394-0.002,0.566c-0.711,1.162-1.086,2.466-1.086,3.772c0,1.864,0.717,3.641,2.023,5.003
	c0.131,0.136,0.182,0.328,0.137,0.511C396.174-272.483,394.729-264.134,393.882-255.571z M430.713-215.538
	c-0.096,0-0.191-0.024-0.279-0.077c-6.367-3.81-12.33-8.337-17.721-13.458c-5.385-5.114-10.205-10.828-14.332-16.985
	c-0.066-0.098-0.1-0.214-0.094-0.331c0.559-11.077,2.078-21.797,4.52-31.861c0.061-0.243,0.275-0.415,0.525-0.417
	c0.326-0.003,0.648-0.043,1.029-0.104c0.203-0.032,0.404,0.05,0.525,0.215c10.586,14.429,23.473,26.607,38.299,36.196
	c0.174,0.112,0.268,0.312,0.246,0.518c-0.01,0.08-0.021,0.16-0.031,0.24c-0.021,0.153-0.041,0.297-0.041,0.431
	c0,1.44,0.494,2.813,1.428,3.975c0.135,0.168,0.158,0.398,0.061,0.59c-3.668,7.161-8.281,14.182-13.711,20.868
	C431.029-215.608,430.871-215.538,430.713-215.538z M476.027-202.199c0.006,0.155-0.053,0.306-0.162,0.414
	c-0.104,0.1-0.24,0.154-0.383,0.154c-0.01,0-0.021,0-0.033,0c-13.883-0.894-27.172-4.571-39.5-10.934
	c-0.145-0.074-0.25-0.211-0.281-0.37c-0.035-0.159,0.004-0.327,0.105-0.454c5.404-6.754,10.029-13.864,13.746-21.134
	c0.09-0.176,0.266-0.29,0.463-0.297c1.25-0.05,2.432-0.447,3.422-1.15c0.168-0.12,0.391-0.134,0.572-0.037
	c5.963,3.179,12.262,6.016,18.721,8.436c0.201,0.075,0.34,0.264,0.354,0.48c0.129,2.335,1.387,4.473,3.361,5.718
	c0.178,0.112,0.275,0.316,0.25,0.525C475.963-214.969,475.748-208.694,476.027-202.199z M478.99-234.608
	c-1.582,0.278-2.994,1.064-4.088,2.272c-0.104,0.116-0.252,0.18-0.404,0.18c-0.062,0-0.127-0.011-0.188-0.033
	c-6.311-2.339-12.352-5.024-17.957-7.981c-0.189-0.101-0.303-0.305-0.289-0.52c0.006-0.084,0.018-0.166,0.027-0.248
	c0.014-0.089,0.023-0.165,0.023-0.233c0-1.474-0.516-2.873-1.488-4.048c-0.125-0.149-0.16-0.357-0.092-0.54
	c7.936-20.805,9.451-43.576,4.508-67.684c-0.037-0.173,0.016-0.353,0.137-0.482c0.119-0.128,0.295-0.189,0.471-0.166
	c7.471,1.034,14.848,1.56,21.926,1.56c2.775,0,5.742-0.101,9.068-0.306c0.203-0.013,0.395,0.088,0.5,0.262
	c0.844,1.398,2.172,2.434,3.74,2.916c0.182,0.055,0.32,0.201,0.367,0.384c1.793,6.954,4.24,13.566,7.273,19.652
	c0.855,1.719,1.832,3.498,3.07,5.6c0.1,0.167,0.102,0.375,0.006,0.544c-0.645,1.146-0.971,2.356-0.971,3.596
	c0,0.854,0.166,1.729,0.492,2.601c0.08,0.208,0.023,0.441-0.141,0.592c-12.553,11.573-21.154,25.601-25.562,41.691
	C479.365-234.798,479.197-234.646,478.99-234.608z M532.357-214.92c-7.504,4.349-15.529,7.707-23.854,9.981
	c-8.602,2.351-17.518,3.543-26.506,3.543c-0.053,0-0.104-0.002-0.154-0.004c-0.041-0.001-0.08-0.002-0.119-0.002
	c-0.289,0-0.529-0.229-0.543-0.519c-0.297-6.274-0.111-12.379,0.555-18.144c0.025-0.222,0.184-0.405,0.398-0.463
	c1.459-0.394,2.74-1.228,3.707-2.411c0.137-0.168,0.359-0.238,0.568-0.18c14.104,3.961,29.479,6.378,45.699,7.183
	c0.24,0.012,0.445,0.181,0.502,0.416C532.67-215.285,532.564-215.041,532.357-214.92z M549.039-227.17
	c-0.021,0.122-0.082,0.233-0.176,0.316c-2.35,2.093-4.836,4.105-7.389,5.983c-0.094,0.068-0.207,0.104-0.322,0.104
	c-0.002,0-0.006,0-0.008,0c-19.232-0.264-37.178-2.658-53.338-7.115c-0.213-0.06-0.371-0.242-0.396-0.462
	c-0.234-1.999-1.248-3.758-2.854-4.951c-0.18-0.135-0.258-0.364-0.199-0.58c4.133-15.206,12.131-28.434,23.773-39.314
	c0.168-0.155,0.412-0.191,0.615-0.089c1.074,0.536,2.186,0.809,3.301,0.809c0.428,0,0.848-0.062,1.205-0.124
	c0.191-0.033,0.387,0.038,0.512,0.188c8.832,10.592,20.365,19.252,34.281,25.745c0.148,0.068,0.258,0.2,0.299,0.359
	c0.379,1.499,1.277,2.81,2.527,3.69c0.162,0.114,0.25,0.307,0.229,0.503C550.553-237.021,549.859-231.995,549.039-227.17z
	 M552.059-254.115c-0.01,0.197-0.125,0.374-0.303,0.461c-0.805,0.396-1.512,0.953-2.1,1.653c-0.105,0.126-0.26,0.194-0.418,0.194
	c-0.08,0-0.16-0.018-0.234-0.055c-12.436-5.986-22.799-13.788-30.801-23.184c-0.16-0.188-0.174-0.458-0.035-0.661
	c0.848-1.234,1.295-2.679,1.295-4.179c0-0.556-0.082-1.14-0.26-1.837c-0.057-0.221,0.031-0.453,0.219-0.583
	c7.459-5.151,15.971-9.619,25.295-13.28c0.229-0.089,0.484-0.018,0.633,0.176c1.061,1.39,2.562,2.36,4.229,2.733
	c0.217,0.048,0.383,0.221,0.418,0.438C552.049-280.343,552.742-267.518,552.059-254.115z M552.195-307.495
	c-1.584-5.596-3.547-11.143-5.832-16.489c-0.09-0.207-0.041-0.447,0.121-0.605c1.35-1.308,2.092-3.052,2.092-4.913
	c0-0.058-0.008-0.124-0.02-0.202c-0.012-0.077-0.021-0.164-0.027-0.26c-0.01-0.202,0.092-0.396,0.27-0.498
	c7.77-4.573,15.316-10.122,22.432-16.494c0.127-0.114,0.299-0.161,0.465-0.13c0.168,0.032,0.311,0.141,0.387,0.293
	c5.623,11.289,9.027,23.405,10.117,36.011c0.025,0.29-0.18,0.548-0.469,0.587c-4.5,0.625-13.686,2.16-24.635,5.419
	c-0.053,0.016-0.104,0.022-0.156,0.022c-0.148,0-0.291-0.06-0.396-0.171c-1.066-1.131-2.424-1.886-3.928-2.183
	C552.414-307.148,552.252-307.298,552.195-307.495z M561.609-240.525c-1.521,1.97-3.068,3.833-4.596,5.54
	c-0.105,0.119-0.254,0.182-0.406,0.182c-0.078,0-0.154-0.016-0.229-0.051c-0.217-0.099-0.344-0.329-0.312-0.564
	c0.271-2.06,0.514-4.105,0.721-6.084c0.021-0.197,0.148-0.367,0.33-0.445c0.262-0.11,0.514-0.26,0.77-0.417
	c0.141-0.086,0.314-0.104,0.471-0.046c0.783,0.286,1.6,0.562,2.389,0.83l0.607,0.207c0.168,0.058,0.297,0.191,0.348,0.359
	S561.717-240.663,561.609-240.525z M565.441-245.78c-0.104,0.154-0.275,0.241-0.453,0.241c-0.055,0-0.111-0.01-0.166-0.026
	c-1.244-0.402-2.365-0.767-3.486-1.163c-0.234-0.081-0.385-0.312-0.363-0.559c0.008-0.09,0.02-0.179,0.031-0.266
	c0.016-0.116,0.031-0.226,0.031-0.324c0-2.22-1.137-4.259-3.037-5.455c-0.168-0.104-0.266-0.291-0.256-0.487
	c0.676-13.935-0.111-27.273-2.336-39.647c-0.037-0.202,0.043-0.408,0.209-0.532c1.871-1.411,2.947-3.545,2.951-5.854
	c0-0.244,0.162-0.457,0.396-0.523c9.646-2.738,17.811-4.11,22.961-4.777c0.152-0.021,0.307,0.026,0.424,0.127
	c0.117,0.1,0.188,0.246,0.189,0.399c0.008,0.273,0.018,0.545,0.025,0.817c0.021,0.59,0.041,1.201,0.041,1.811
	C582.604-281.853,576.67-262.413,565.441-245.78z"/>
</svg>
